# xmcd
#
# Track frame offsets: 
#        150
#        20190
#        42777
#        63504
#        83819
#        101135
#        118570
#        136950
#        152616
#        170046
#        189923
#        208898
#        230528
#        248921
#        266323
#        282619
#        301296
#        320782
#        340570
#
# Disc length: 4763 seconds
#
# Revision: 0
# Processed by: cddbd v1.5.2PL0 Copyright (c) Steve Scherf et al.
# Submitted via: ExactAudioCopy v0.99pb5
#
DISCID=15129913
DTITLE=Various Artist - 100 Timeless Memories - Disk 2
DYEAR=1900
DGENRE=Pop
TTITLE0=Zucchero and Paul Young - Senza Una Donna
TTITLE1=Texas - I Don't Want A Lover
TTITLE2=Indecent Obsession - Kiss Me
TTITLE3=Lionel Richie - Dancing On The Ceiling
TTITLE4=Tiffany - I Think We're Alone Now
TTITLE5=Irene Cara - Flashdance... What A Feeling 95
TTITLE6=Dexy's Midnight Runners - Come On Eileen
TTITLE7=Joan Armatrading - Drop The Pilot
TTITLE8=Asia - Heat Of The Moment
TTITLE9=Robert Palmer - Addicted To Love
TTITLE10=The Buggles - Video Killed The Radio Star
TTITLE11=Black - Wonderful Life
TTITLE12=Jim Diamond - I Should Have Known Better
TTITLE13=Air Supply - Lost In Love
TTITLE14=The Commodores - Three Times A Lady
TTITLE15=Dan Hartman - I Can Dream About You
TTITLE16=The Mavericks - All You Ever Do Is Bring Me Down
TTITLE17=Chris Norman - One Last Kiss
TTITLE18=BZN - Baby Voulez Vous
EXTD=
EXTT0=
EXTT1=
EXTT2=
EXTT3=
EXTT4=
EXTT5=
EXTT6=
EXTT7=
EXTT8=
EXTT9=
EXTT10=
EXTT11=
EXTT12=
EXTT13=
EXTT14=
EXTT15=
EXTT16=
EXTT17=
EXTT18=
PLAYORDER=
